<?xml version="1.0" encoding="utf-8"?>
<!-- Generator: Adobe Illustrator 23.0.1, SVG Export Plug-In . SVG Version: 6.00 Build 0)  -->
<svg version="1.1" id="Layer_1" xmlns="http://www.w3.org/2000/svg" xmlns:xlink="http://www.w3.org/1999/xlink" x="0px" y="0px"
	 viewBox="0 0 24 24" style="enable-background:new 0 0 24 24;" xml:space="preserve">
<g>
	<path d="M23.9,11.7l-3.3-3.3V3.8c0-0.2-0.2-0.4-0.4-0.4h-4.6l-3.3-3.3C12.2,0,12.1,0,12,0s-0.2,0-0.3,0.1L8.4,3.4H3.8
		c-0.2,0-0.4,0.2-0.4,0.4v4.6l-3.3,3.3c-0.2,0.2-0.2,0.4,0,0.6l3.3,3.3v4.6c0,0.2,0.2,0.4,0.4,0.4h4.6l3.3,3.3
		C11.8,24,11.9,24,12,24s0.2,0,0.3-0.1l3.3-3.3h4.6c0.2,0,0.4-0.2,0.4-0.4v-4.6l3.3-3.3C24,12.1,24,11.9,23.9,11.7z M17.1,13.6
		c-0.5,0.9-1.3,1.7-2.2,2.6c-1.1,1-2.2,1.8-2.9,2.2c-0.7-0.4-1.8-1.2-2.9-2.2c-0.9-0.9-1.7-1.8-2.2-2.6c-0.6-1-0.9-1.9-0.9-2.8
		c0-0.9,0.3-1.6,0.9-2.2C7.5,8,8.3,7.7,9.1,7.7c0.4,0,0.9,0,1.2,0.2c0.4,0.2,0.7,0.4,1,0.7L12,9.3l0.7-0.6c0.3-0.3,0.6-0.5,1-0.7
		c0.4-0.2,0.8-0.3,1.2-0.3c0.8,0,1.6,0.3,2.2,0.9C17.7,9.2,18,10,18,10.8C18,11.7,17.7,12.6,17.1,13.6z"/>
</g>
</svg>
